<?xml version="1.0" standalone="no"?>
<!DOCTYPE svg PUBLIC "-//W3C//DTD SVG 20010904//EN"
 "http://www.w3.org/TR/2001/REC-SVG-20010904/DTD/svg10.dtd">
<svg version="1.0" xmlns="http://www.w3.org/2000/svg"
 width="300.000000pt" height="300.000000pt" viewBox="0 0 300.000000 300.000000"
 preserveAspectRatio="xMidYMid meet">
<metadata>
Created by potrace 1.14, written by Peter Selinger 2001-2017
</metadata>
<g transform="translate(0.000000,300.000000) scale(0.100000,-0.100000)"
fill="#000000" stroke="none">
<path d="M1035 2428 c-47 -15 -124 -48 -200 -85 -70 -35 -70 -35 -230 -38 -88
-2 -176 -6 -195 -9 -113 -18 -196 -44 -224 -69 -22 -20 -53 -80 -61 -117 -2
-8 -15 -62 -31 -120 -15 -58 -28 -114 -29 -126 -2 -11 -8 -45 -14 -75 -35
-173 -46 -316 -46 -599 1 -393 2 -399 129 -484 91 -61 142 -61 174 0 11 20 10
64 -4 190 -9 91 -6 219 7 269 32 119 112 201 212 218 22 3 32 -2 48 -24 42
-60 69 -220 71 -429 1 -108 3 -112 86 -168 30 -19 58 -45 62 -58 10 -24 59
-74 74 -74 5 0 19 -9 30 -19 58 -53 251 -66 346 -23 91 40 100 67 100 309 l1
132 22 -8 c56 -22 267 -34 335 -20 17 4 35 3 38 -2 3 -5 6 -35 6 -67 1 -31 6
-68 11 -82 13 -29 57 -80 70 -80 5 0 22 -11 39 -25 16 -14 40 -25 52 -25 25 0
82 -26 92 -41 24 -40 184 -54 272 -25 98 33 119 73 115 221 -1 50 -2 167 -3
262 l-1 172 28 43 c66 99 106 245 105 387 -1 107 -8 141 -48 229 -13 29 -24
56 -24 61 0 13 361 7 386 -6 11 -7 44 -15 72 -19 50 -6 51 -6 72 27 27 44 24
144 -5 165 -10 7 -21 11 -25 9 -4 -3 -15 6 -24 20 -23 34 -52 32 -133 -11
l-68 -36 -222 4 c-134 3 -227 9 -235 15 -59 48 -292 153 -373 169 -11 2 -40 8
-65 13 -127 28 -356 35 -492 15 -83 -12 -83 -12 -128 15 -48 30 -117 37 -175
19z"/>
</g>
</svg>
